<svg xmlns="http://www.w3.org/2000/svg" width="1120" height="500" viewBox="0 0 1120 500">
  <rect width="1120" height="500" fill="#202124"/>
  <g transform="translate(72 62)">
    <rect x="0" y="0" width="976" height="376" rx="28" fill="#202124"/>
    <g transform="translate(0 8)">
      <circle cx="25" cy="25" r="22" fill="#f8fafc"/>
      <circle cx="25" cy="25" r="17" fill="#ffd21f"/>
      <path d="M25 8 C36 8 44 16 44 27 C44 41 25 59 25 59 C25 59 6 41 6 27 C6 16 14 8 25 8 Z" fill="#ffd21f" stroke="#111827" stroke-width="3"/>
      <rect x="15" y="20" width="20" height="15" rx="4" fill="#111827"/>
      <rect x="18" y="23" width="14" height="6" rx="1" fill="#ffffff"/>
      <circle cx="19" cy="38" r="2.5" fill="#111827"/>
      <circle cx="31" cy="38" r="2.5" fill="#111827"/>
      <text x="64" y="18" font-family="Arial, 'Apple SD Gothic Neo', sans-serif" font-size="19" font-weight="700" fill="#f1f3f4">셔틀Go</text>
      <text x="64" y="45" font-family="Arial, 'Apple SD Gothic Neo', sans-serif" font-size="18" fill="#bdc1c6">https://shuttle-go.com › page › dongtan-station-samsung-electronics-giheung...</text>
      <circle cx="773" cy="25" r="3" fill="#bdc1c6"/>
      <circle cx="773" cy="35" r="3" fill="#bdc1c6"/>
      <circle cx="773" cy="45" r="3" fill="#bdc1c6"/>
    </g>
    <text x="0" y="112" font-family="Arial, 'Apple SD Gothic Neo', sans-serif" font-size="34" font-weight="700" fill="#8ab4f8">동탄역에서 삼성전자 기흥 사업장으로 가는 출근 버스 | 셔틀Go</text>
    <text x="0" y="164" font-family="Arial, 'Apple SD Gothic Neo', sans-serif" font-size="22" fill="#bdc1c6">
      <tspan x="0" dy="0">동탄역에서 삼성전자 기흥 사업장까지 가는 셔틀 노선 및 예상 도착 시간을</tspan>
      <tspan x="0" dy="34">셔틀Go에서 확인하세요.</tspan>
    </text>
    <g transform="translate(0 244)">
      <rect x="0" y="0" width="220" height="44" rx="22" fill="#303134"/>
      <text x="24" y="29" font-family="Arial, 'Apple SD Gothic Neo', sans-serif" font-size="17" font-weight="700" fill="#e8eaed">동탄역 출발</text>
      <rect x="238" y="0" width="250" height="44" rx="22" fill="#303134"/>
      <text x="262" y="29" font-family="Arial, 'Apple SD Gothic Neo', sans-serif" font-size="17" font-weight="700" fill="#e8eaed">삼성전자 기흥 도착</text>
      <rect x="506" y="0" width="156" height="44" rx="22" fill="#303134"/>
      <text x="530" y="29" font-family="Arial, 'Apple SD Gothic Neo', sans-serif" font-size="17" font-weight="700" fill="#e8eaed">출근 셔틀</text>
    </g>
    <text x="0" y="344" font-family="Arial, 'Apple SD Gothic Neo', sans-serif" font-size="17" fill="#9aa0a6">* 실제 Google 검색 결과의 제목과 설명은 검색어, 기기, 재색인 상태에 따라 달라질 수 있습니다.</text>
  </g>
</svg>
