<?xml version="1.0" encoding="utf-8"?>
<!-- Generator: Adobe Illustrator 16.0.0, SVG Export Plug-In . SVG Version: 6.00 Build 0)  -->
<!DOCTYPE svg PUBLIC "-//W3C//DTD SVG 1.1//EN" "http://www.w3.org/Graphics/SVG/1.1/DTD/svg11.dtd">
<svg version="1.1" id="Layer_1" xmlns="http://www.w3.org/2000/svg" xmlns:xlink="http://www.w3.org/1999/xlink" x="0px" y="0px"
	 width="220.42px" height="30.044px" viewBox="0 0 220.42 30.044" enable-background="new 0 0 220.42 30.044" xml:space="preserve">
<g>
	<path fill="#034F9E" d="M90.44,7.153C89.208,0.09,67.975-2.119,43.017,2.227c-10.48,1.826-19.943,4.518-27.314,7.549
		c1.131,0.027,1.971,0.285,2.486,0.793c0.395,0.4,0.594,0.949,0.594,1.631v0.699h-2.445v-0.621c0-0.514-0.309-0.83-0.857-0.83
		c-0.461,0-0.742,0.203-0.838,0.615c-0.021,0.113-0.027,0.311,0.016,0.488c0.262,1.07,3.895,1.734,4.289,3.713
		c0.055,0.254,0.119,0.795,0.014,1.574c-0.23,1.596-1.627,2.211-3.408,2.211c-2.488,0-3.5-1.18-3.5-2.807v-0.764h2.625l0.004,0.957
		c0,0.535,0.391,0.834,0.924,0.834c0.5,0,0.799-0.203,0.902-0.621c0.043-0.188,0.066-0.473-0.021-0.688
		c-0.484-1.217-3.877-1.785-4.295-3.753c-0.096-0.448-0.102-0.823-0.025-1.3c0.041-0.258,0.119-0.479,0.217-0.68
		c-8.176,3.822-12.959,8.027-12.326,11.66c1.236,7.066,22.463,9.271,47.419,4.93c10.971-1.916,20.834-4.773,28.34-7.979
		c-0.109,0.01-0.213,0.018-0.326,0.018c-1.707,0-3.236-0.641-3.391-2.385c-0.031-0.316-0.031-0.453-0.037-0.633l0.006-4.018
		c0-0.168,0.02-0.473,0.035-0.629c0.207-1.689,1.537-2.385,3.387-2.385c1.43,0,3.184,0.408,3.379,2.387
		c0.025,0.246,0.025,0.513,0.025,0.596c0,0.004,0,0.004,0,0.004v0.379h-2.475V12.61v-0.004c0-0.01-0.006-0.221-0.029-0.354
		c-0.043-0.201-0.211-0.672-0.922-0.672c-0.695,0-0.875,0.471-0.918,0.672c-0.021,0.111-0.037,0.271-0.037,0.445v4.361
		c0,0.15,0.004,0.271,0.021,0.359c0.01,0.066,0.137,0.672,0.945,0.672c0.807,0,0.932-0.605,0.939-0.672
		c0.023-0.121,0.025-0.26,0.023-0.359v-1.348h-0.975v-1.458h3.439v2.587c0,0.178,0,0.308-0.029,0.633
		c-0.047,0.455-0.189,0.846-0.414,1.176C86.426,14.87,91.059,10.73,90.44,7.153z M25.72,19.674l-1.25-8.508h-0.045l-1.283,8.508
		h-2.643l1.775-9.609h4.311l1.762,9.609H25.72z M38.415,19.674l-0.061-8.344h-0.039l-1.555,8.344h-2.479l-1.543-8.344h-0.043
		l-0.059,8.344h-2.453l0.213-9.609h3.947l1.148,7.141h0.059l1.15-7.141h3.947l0.207,9.609H38.415z M49.969,17.811
		c-0.264,1.863-2.088,2.188-3.375,2.188c-2.138,0-3.464-0.914-3.464-2.775l0.006-0.762h2.589v0.947c0,0.514,0.365,0.826,0.924,0.826
		c0.498,0,0.789-0.199,0.891-0.609c0.047-0.189,0.07-0.473-0.018-0.684c-0.479-1.193-3.845-1.777-4.251-3.715
		c-0.096-0.445-0.098-0.814-0.021-1.287c0.281-1.756,1.971-2.121,3.326-2.121c1.217,0,2.098,0.265,2.629,0.795
		c0.395,0.395,0.594,0.938,0.594,1.611v0.697h-2.422v-0.613c0-0.523-0.326-0.826-0.848-0.826c-0.465,0-0.744,0.205-0.836,0.613
		c-0.017,0.082-0.039,0.281,0.012,0.479c0.264,1.066,3.861,1.719,4.256,3.676C50.006,16.502,50.079,17.038,49.969,17.811z
		 M58.948,16.942c0.006,0.178-0.014,0.537-0.023,0.631c-0.148,1.58-1.281,2.387-3.359,2.387c-2.082,0-3.219-0.807-3.363-2.387
		c-0.006-0.094-0.025-0.453-0.021-0.631v-6.879h2.477v7.096c0,0.158,0.004,0.277,0.025,0.355c0.031,0.16,0.188,0.672,0.883,0.672
		c0.699,0,0.857-0.512,0.895-0.672c0.012-0.078,0.016-0.203,0.016-0.355v-7.096h2.473V16.942z M69.629,19.575h-3.445l-2.316-7.609
		h-0.037l0.125,7.609h-2.406v-9.51h3.594l2.145,7.313h0.049l-0.125-7.313h2.418V19.575z"/>
	<g>
		<path fill="#034F9E" d="M113.371,21.979c-3.488,0-4.141-2.053-3.992-4.385h2.817c0,1.288,0.056,2.369,1.604,2.369
			c0.951,0,1.417-0.614,1.417-1.528c0-2.425-5.671-2.574-5.671-6.586c0-2.107,1.008-3.785,4.44-3.785
			c2.742,0,4.103,1.23,3.917,4.047h-2.743c0-1.007-0.168-2.033-1.306-2.033c-0.914,0-1.455,0.504-1.455,1.436
			c0,2.557,5.671,2.332,5.671,6.567C118.072,21.568,115.517,21.979,113.371,21.979z"/>
		<path fill="#034F9E" d="M121.747,21.754l0.765-2.983h3.842l0.746,2.983h2.967L126.41,8.287h-3.713l-3.73,13.468H121.747z
			 M125.757,16.7h-2.686l1.286-5.819h0.037L125.757,16.7"/>
		<polygon fill="#034F9E" points="131.241,21.754 131.241,8.287 135.773,8.287 137.881,17.445 137.918,17.445 140.157,8.287 
			144.541,8.287 144.541,21.754 141.798,21.754 141.798,11.366 141.761,11.366 139.168,21.754 136.482,21.754 134.021,11.366 
			133.982,11.366 133.982,21.754 		"/>
		<path fill="#034F9E" d="M150.396,21.979c-3.488,0-4.141-2.053-3.991-4.385h2.816c0,1.288,0.057,2.369,1.604,2.369
			c0.951,0,1.417-0.614,1.417-1.528c0-2.425-5.67-2.574-5.67-6.586c0-2.107,1.007-3.785,4.439-3.785c2.741,0,4.104,1.23,3.917,4.047
			h-2.741c0-1.007-0.168-2.033-1.307-2.033c-0.914,0-1.455,0.504-1.455,1.436c0,2.557,5.671,2.332,5.671,6.567
			C155.098,21.568,152.542,21.979,150.396,21.979z"/>
		<path fill="#034F9E" d="M166.121,8.287v9.552c0,2.014-1.138,4.141-4.57,4.141c-3.096,0-4.588-1.604-4.588-4.141V8.287h2.816v9.364
			c0,1.661,0.709,2.313,1.735,2.313c1.23,0,1.79-0.82,1.79-2.313V8.287H166.121z"/>
		<polygon fill="#034F9E" points="168.342,21.754 168.342,8.287 172.146,8.287 175.729,17.613 175.766,17.613 175.766,8.287 
			178.395,8.287 178.395,21.754 174.683,21.754 171.009,11.906 170.971,11.906 170.971,21.754 		"/>
		<path fill="#034F9E" d="M186.827,12.428c0.018-1.25-0.188-2.351-1.679-2.351c-1.755,0-1.755,2.369-1.755,4.98
			c0,4.216,0.411,4.962,2.015,4.962c0.467,0,0.97-0.112,1.399-0.262v-2.984h-1.529v-2.07h4.346v6.828
			c-0.765,0.148-2.686,0.447-3.806,0.447c-4.737,0-5.278-1.959-5.278-7.07c0-3.396,0.168-6.845,4.776-6.845
			c2.76,0,4.476,1.548,4.308,4.364H186.827z"/>
		<path fill="#034F9E" d="M199.678,21.979c-3.488,0-4.142-2.053-3.992-4.385h2.817c0,1.288,0.056,2.369,1.604,2.369
			c0.951,0,1.417-0.614,1.417-1.528c0-2.425-5.671-2.574-5.671-6.586c0-2.107,1.008-3.785,4.439-3.785
			c2.742,0,4.104,1.23,3.917,4.047h-2.742c0-1.007-0.168-2.033-1.306-2.033c-0.913,0-1.454,0.504-1.454,1.436
			c0,2.557,5.67,2.332,5.67,6.567C204.378,21.568,201.823,21.979,199.678,21.979z"/>
		<path fill="#034F9E" d="M206.355,21.754h4.589c4.812,0,4.495-4.737,4.495-6.808c0-4.197-0.69-6.66-4.384-6.66h-4.7V21.754z
			 M209.172,10.357h1.454c1.96,0,1.96,2.184,1.96,4.663c0,3.377-0.336,4.664-2.053,4.664h-1.361V10.357"/>
		<rect x="217.604" y="8.287" fill="#034F9E" width="2.816" height="13.468"/>
	</g>
</g>
</svg>
