<svg xmlns="http://www.w3.org/2000/svg" width="20" height="20" viewBox="0 0 20 20" role="img" aria-label="Apple">
  <path fill="#111827" d="M14.78 10.48c-.02-2.02 1.65-2.99 1.72-3.03-.95-1.38-2.42-1.57-2.93-1.59-1.25-.13-2.43.73-3.06.73-.63 0-1.6-.71-2.63-.69-1.35.02-2.6.79-3.3 2-1.41 2.45-.36 6.08 1.02 8.06.67.97 1.47 2.06 2.52 2.02 1.01-.04 1.39-.65 2.61-.65 1.22 0 1.56.65 2.63.63 1.08-.02 1.77-.99 2.44-1.96.77-1.13 1.09-2.22 1.11-2.28-.02-.01-2.11-.81-2.13-3.24z"/>
  <path fill="#111827" d="M12.75 4.54c.56-.68.94-1.63.84-2.58-.81.03-1.79.54-2.37 1.22-.52.6-.98 1.57-.86 2.49.9.07 1.83-.46 2.39-1.13z"/>
</svg>
